<?xml version="1.0" encoding="iso-8859-1"?>
<!-- Generator: Adobe Illustrator 19.0.0, SVG Export Plug-In . SVG Version: 6.00 Build 0)  -->
<svg version="1.1" id="Capa_1" xmlns="http://www.w3.org/2000/svg" xmlns:xlink="http://www.w3.org/1999/xlink" x="0px" y="0px"
	 viewBox="0 0 512 512" style="enable-background:new 0 0 512 512;" xml:space="preserve">
<path style="fill:#57555C;" d="M281.002,75.46C260.371,84.931,246,105.748,246,130c0,6.36,0.99,12.48,2.82,18.23h64.36
	c1.83-5.75,2.82-11.87,2.82-18.23C316,105.765,301.641,84.936,281.002,75.46z"/>
<path style="fill:#F25A78;" d="M289.104,139.944C215.534,157.788,162.14,233.862,162.14,319
	c0,84.957,53.203,161.168,126.896,179.049C362.422,480.226,416,404.401,416,319C416,234.314,362.986,157.847,289.104,139.944z"/>
<g>
	<path style="fill:#57555C;" d="M346,299c16.57,0,30,8.95,30,20s-13.43,20-30,20s-30-8.95-30-20S329.43,299,346,299z"/>
	<path style="fill:#57555C;" d="M316,219c11.05,0,20,8.95,20,20s-8.95,20-20,20s-20-8.95-20-20S304.95,219,316,219z"/>
	<path style="fill:#57555C;" d="M316,379c11.05,0,20,8.95,20,20s-8.95,20-20,20s-20-8.95-20-20S304.95,379,316,379z"/>
</g>
<g>
	<path style="fill:#FFFFFF;" d="M196,219c11.05,0,20,8.95,20,20s-8.95,20-20,20s-20-8.95-20-20S184.95,219,196,219z"/>
	<path style="fill:#FFFFFF;" d="M196,379c11.05,0,20,8.95,20,20s-8.95,20-20,20s-20-8.95-20-20S184.95,379,196,379z"/>
	<path style="fill:#FFFFFF;" d="M178.875,300.932C174.973,299.694,170.609,299,166,299c-16.57,0-30,8.95-30,20s13.43,20,30,20
		c4.609,0,8.973-0.694,12.875-1.932C189,333.857,196,326.977,196,319S189,304.143,178.875,300.932z"/>
</g>
<path d="M256,229c5.52,0,10-4.48,10-10s-4.48-10-10-10s-10,4.48-10,10S250.48,229,256,229z"/>
<path d="M316,269c16.542,0,30-13.458,30-30s-13.458-30-30-30s-30,13.458-30,30S299.458,269,316,269z M316,229
	c5.514,0,10,4.486,10,10s-4.486,10-10,10s-10-4.486-10-10S310.486,229,316,229z"/>
<path d="M196,269c16.542,0,30-13.458,30-30s-13.458-30-30-30s-30,13.458-30,30S179.458,269,196,269z M196,229
	c5.514,0,10,4.486,10,10s-4.486,10-10,10s-10-4.486-10-10S190.486,229,196,229z"/>
<path d="M196,369c-16.542,0-30,13.458-30,30s13.458,30,30,30s30-13.458,30-30S212.542,369,196,369z M196,409
	c-5.514,0-10-4.486-10-10s4.486-10,10-10s10,4.486,10,10S201.514,409,196,409z"/>
<path d="M316,429c16.542,0,30-13.458,30-30s-13.458-30-30-30s-30,13.458-30,30S299.458,429,316,429z M316,389
	c5.514,0,10,4.486,10,10s-4.486,10-10,10s-10-4.486-10-10S310.486,389,316,389z"/>
<path d="M36,309c-5.522,0-10,4.477-10,10s4.478,10,10,10h50.243c1.717,36.79,12.862,72.376,32.037,102.486
	C88.605,439.928,66,468.855,66,502c0,5.523,4.478,10,10,10s10-4.477,10-10c0-26.445,20.599-49.932,45.08-52.718
	C163.388,489.209,208.632,512,256,512c47.366,0,92.609-22.789,124.916-62.714C405.423,452.093,426,475.57,426,502
	c0,5.523,4.478,10,10,10s10-4.477,10-10c0-33.135-22.592-62.055-52.285-70.507c19.178-30.111,30.325-65.7,32.042-102.493H476
	c5.522,0,10-4.477,10-10s-4.478-10-10-10h-50.243c-1.717-36.79-12.862-72.376-32.037-102.485C423.395,198.073,446,169.145,446,136
	c0-5.523-4.478-10-10-10s-10,4.477-10,10c0,26.445-20.599,49.932-45.08,52.718c-15.79-19.502-34.984-35.216-56.089-45.982
	C325.602,138.55,326,134.292,326,130c0-26.652-15.242-50.866-38.665-62.609C293.125,39.931,317.203,20,346,20
	c5.522,0,10-4.477,10-10s-4.478-10-10-10c-37.551,0-69.195,25.9-77.73,61.076C264.242,60.363,260.143,60,256,60
	s-8.242,0.363-12.27,1.076C235.187,25.866,203.516,0,166,0c-5.522,0-10,4.477-10,10s4.478,10,10,10
	c28.797,0,52.875,19.932,58.665,47.391C201.241,79.135,186,103.348,186,130c0,4.292,0.398,8.55,1.169,12.735
	c-21.115,10.771-40.318,26.497-56.113,46.014C105.817,186.248,86,164.85,86,139c0-5.523-4.478-10-10-10s-10,4.477-10,10
	c0,32.363,22.185,59.748,52.174,67.682C99.064,236.756,87.957,272.278,86.243,309H36z M239.084,82.93
	C244.491,80.986,250.183,80,256,80c5.817,0,11.509,0.986,16.918,2.931C292.705,90.042,306,108.958,306,130
	c0,1.522-0.076,3.036-0.212,4.542C289.695,128.872,272.999,126,256,126s-33.694,2.871-49.788,8.542
	c-0.135-1.506-0.212-3.02-0.212-4.542C206,108.958,219.295,90.042,239.084,82.93z M246,146.388V179c0,5.523,4.478,10,10,10
	s10-4.477,10-10v-32.612C346.094,152.58,406,231.411,406,319c0,87.738-59.858,166.277-140,172.591V259c0-5.523-4.478-10-10-10
	s-10,4.477-10,10v232.591C169.974,485.601,106,411.45,106,319C106,230.942,166.378,152.544,246,146.388z"/>
<path d="M306,319c0,16.822,17.57,30,40,30s40-13.178,40-30s-17.57-30-40-30S306,302.178,306,319z M366,319c0,4.077-7.791,10-20,10
	s-20-5.923-20-10s7.791-10,20-10S366,314.923,366,319z"/>
<path d="M166,349c22.43,0,40-13.178,40-30s-17.57-30-40-30s-40,13.178-40,30S143.57,349,166,349z M166,309c12.209,0,20,5.923,20,10
	s-7.791,10-20,10s-20-5.923-20-10S153.791,309,166,309z"/>
<g>
</g>
<g>
</g>
<g>
</g>
<g>
</g>
<g>
</g>
<g>
</g>
<g>
</g>
<g>
</g>
<g>
</g>
<g>
</g>
<g>
</g>
<g>
</g>
<g>
</g>
<g>
</g>
<g>
</g>
</svg>
