<?xml version="1.0" encoding="iso-8859-1"?>
<!-- Generator: Adobe Illustrator 18.1.1, SVG Export Plug-In . SVG Version: 6.00 Build 0)  -->
<svg xmlns="http://www.w3.org/2000/svg" xmlns:xlink="http://www.w3.org/1999/xlink" version="1.1" id="Capa_1" x="0px" y="0px" viewBox="0 0 535.5 535.5" style="enable-background:new 0 0 535.5 535.5;" xml:space="preserve" width="512px" height="512px">
<g>
	<g>
		<path d="M393.516,320.689c9.792,0,18.258-1.531,25.398-4.59c7.14-3.063,13.056-7.039,17.748-11.938    c4.689-4.895,8.16-10.506,10.401-16.83c2.244-6.32,3.366-12.75,3.366-19.275c0-8.568-1.428-15.912-4.284-22.032    c-2.854-6.12-6.63-11.322-11.319-15.606c-4.692-4.284-9.69-7.752-14.994-10.404l-15.3-7.65    c-6.528-2.856-11.526-5.304-14.994-7.344s-5.202-4.284-5.202-6.732c0-4.08,1.53-6.63,4.59-7.65c3.063-1.02,5.202-1.53,6.426-1.53    c10.2,0,18.36,3.468,24.48,10.404c2.854,2.04,5.508,2.856,7.956,2.448c2.854,0,5.1-1.428,6.729-4.284l11.628-18.36    c2.856-4.08,2.448-7.956-1.224-11.628c-12.648-12.648-28.968-18.972-48.96-18.972c-16.32,0-29.682,4.794-40.086,14.382    c-10.404,9.588-15.606,21.726-15.606,36.414c0,8.568,1.431,15.708,4.284,21.42c2.856,5.712,6.528,10.608,11.019,14.688    c4.485,4.08,9.384,7.446,14.688,10.098c5.304,2.652,10.404,4.998,15.3,7.038c7.347,3.264,12.75,6.12,16.221,8.568    c3.468,2.448,5.199,5.304,5.199,8.568c0,6.936-4.689,10.404-14.073,10.404c-11.019,0-20.4-4.283-28.152-12.854    c-1.632-2.04-4.08-3.06-7.344-3.06c-3.672,0-6.12,1.428-7.347,4.283l-12.237,18.975c-2.448,4.08-2.244,7.957,0.609,11.629    C352.716,313.549,371.076,320.689,393.516,320.689z M270.504,320.689c9.792,0,18.36-1.531,25.704-4.59    c7.344-3.063,13.362-7.039,18.054-11.938c4.692-4.895,8.16-10.506,10.404-16.83c2.244-6.32,3.366-12.75,3.366-19.275    c0-8.568-1.53-15.912-4.593-22.032c-3.06-6.12-6.834-11.322-11.319-15.606c-4.488-4.284-9.486-7.752-14.994-10.404    c-5.508-2.652-10.71-5.202-15.606-7.65c-6.117-2.856-11.016-5.304-14.688-7.344s-5.508-4.284-5.508-6.732    c0-4.08,1.53-6.63,4.59-7.65s5.406-1.53,7.038-1.53c10.2,0,18.357,3.468,24.479,10.404c2.04,2.448,4.692,3.264,7.956,2.448    c2.448,0,4.692-1.428,6.732-4.284l11.628-18.36c2.854-4.08,2.448-7.956-1.227-11.628c-12.646-12.648-28.968-18.972-48.96-18.972    c-16.319,0-29.682,4.794-40.083,14.382c-10.404,9.588-15.606,21.726-15.606,36.414c0,8.568,1.428,15.708,4.284,21.42    c2.856,5.712,6.528,10.608,11.016,14.688s9.282,7.446,14.382,10.098c5.1,2.652,10.098,4.998,14.994,7.038    c7.752,3.264,13.362,6.12,16.83,8.568s5.202,5.304,5.202,8.568c0,6.936-4.692,10.404-14.076,10.404    c-11.424,0-20.808-4.283-28.152-12.854c-1.632-2.04-4.284-3.06-7.956-3.06c-3.264,0-5.508,1.428-6.732,4.283l-12.852,18.975    c-2.448,4.486-2.04,8.365,1.224,11.629C229.5,313.549,247.656,320.689,270.504,320.689z M201.348,280.908    c1.224-2.447,1.224-4.895,0-7.344c-0.816-2.447-2.448-4.08-4.896-4.896l-20.196-9.179c-2.448-1.224-4.896-1.224-7.344,0    c-2.856,1.224-4.488,3.06-4.896,5.508c-0.816,2.04-2.652,5.101-5.508,9.181s-7.14,6.117-12.852,6.117    c-7.752,0-14.076-4.182-18.972-12.546c-4.896-8.364-7.344-19.276-7.344-32.742c0-13.464,2.448-24.48,7.344-33.048    s11.22-12.85,18.972-12.85c4.896,0,8.772,1.632,11.628,4.896s5.1,6.528,6.732,9.792c1.224,2.448,3.06,4.08,5.508,4.896    s4.692,0.816,6.732,0l20.196-9.18c2.856-1.224,4.488-3.06,4.896-5.508c0.816-2.856,0.612-5.304-0.612-7.344    c-11.832-25.296-30.192-37.944-55.08-37.944c-20.808,0-37.638,7.956-50.49,23.868s-19.278,36.72-19.278,62.424    s6.426,46.409,19.278,62.118c12.852,15.707,29.682,23.563,50.49,23.563C170.544,320.689,189.108,307.43,201.348,280.908z     M517.14,9.793c5.307,0,9.69,1.734,13.158,5.202s5.202,7.854,5.202,13.158v384.335c0,3.672-1.122,7.141-3.366,10.404    s-4.998,5.508-8.262,6.73L275.4,524.482c-1.635,0.816-3.879,1.225-6.732,1.225c-2.856,0-5.1-0.406-6.732-1.225L12.24,429.623    c-3.672-1.225-6.63-3.469-8.874-6.73C1.122,419.627,0,416.16,0,412.488V28.153c0-5.304,1.836-9.69,5.508-13.158    s7.956-5.202,12.852-5.202H517.14L517.14,9.793z" fill="#006DF0"/>
	</g>
</g>
<g>
</g>
<g>
</g>
<g>
</g>
<g>
</g>
<g>
</g>
<g>
</g>
<g>
</g>
<g>
</g>
<g>
</g>
<g>
</g>
<g>
</g>
<g>
</g>
<g>
</g>
<g>
</g>
<g>
</g>
</svg>
