<?xml version="1.0" encoding="iso-8859-1"?>
<!-- Generator: Adobe Illustrator 19.0.0, SVG Export Plug-In . SVG Version: 6.00 Build 0)  -->
<svg version="1.1" id="Capa_1" xmlns="http://www.w3.org/2000/svg" xmlns:xlink="http://www.w3.org/1999/xlink" x="0px" y="0px"
	 viewBox="0 0 512 512" style="enable-background:new 0 0 512 512;" xml:space="preserve">
<path style="fill:#17ACE8;" d="M429.525,344.696l-70.093-70.078c6.094-33.735-4.731-68.643-29.224-92.827
	c-26.943-26.943-66.079-36.868-101.873-27.124c-13.204,3.595-15.826,15.421-6.15,25.098l44.419,44.419v42.422h-42.422
	l-44.427-44.423c-9.673-9.672-21.497-7.052-25.097,6.145c-9.766,35.799,0.162,74.914,27.058,101.823
	c24.243,24.521,59.092,35.303,92.856,29.297c7.617,7.676,52.061,52.207,70.181,70.122c2.871,2.842,6.694,4.336,10.547,4.336
	c2.344,0,4.702-0.542,6.885-1.67c30.362-15.696,54.685-40.095,70.276-70.519C435.339,356.104,433.985,349.155,429.525,344.696z"/>
<path style="fill:#1689FC;" d="M266.605,266.604v0.002h-42.422l-44.429-44.423c-9.672-9.672-21.497-7.051-25.093,6.145
	c-9.771,35.799,0.161,74.914,27.056,101.823c24.243,24.521,59.092,35.303,92.856,29.297c7.617,7.676,52.061,52.207,70.181,70.122
	c2.871,2.842,6.694,4.336,10.547,4.336c2.344,0,4.702-0.542,6.885-1.67c15.103-7.808,28.696-17.781,40.481-29.568L266.605,266.604z"
	/>
<path style="fill:#CAE8F9;" d="M500.6,211.599l-25.598-6.299c-5.402-24.3-15-47.401-28.202-68.401l12.902-21.599
	c3.596-6,2.699-13.5-2.102-18.3l-42.598-42.601c-4.801-4.799-12.301-5.7-18.303-2.1l-21.6,12.901C354.101,52,331,42.4,306.698,37
	L300.7,11.4C298.898,4.799,292.899,0,286,0h-60c-6.899,0-12.898,4.799-14.7,11.4L205.302,37C181,42.4,157.899,52,136.901,65.2
	l-21.599-12.902c-6.002-3.6-13.502-2.699-18.303,2.1L54.401,97c-4.801,4.799-5.698,12.299-2.102,18.3L65.2,136.899
	c-13.202,21-22.8,44.101-28.202,68.401L11.4,211.599C4.797,213.1,0,219.099,0,226v60c0,6.899,4.797,12.9,11.4,14.399l25.598,6.301
	c5.402,24.3,15,47.399,28.202,68.399L52.299,396.7c-3.596,6-2.699,13.5,2.102,18.3l42.598,42.599c4.801,4.801,12.301,5.7,18.303,2.1
	l21.599-12.9C157.899,460,181,469.6,205.302,475l5.999,25.6c1.802,6.599,7.8,11.4,14.7,11.4h60c6.899,0,12.898-4.801,14.7-11.4
	L306.7,475c24.302-5.4,47.402-15,68.401-28.2l21.599,12.9c6.002,3.6,13.502,2.701,18.303-2.1l42.596-42.6
	c4.801-4.799,5.698-12.299,2.102-18.3L446.8,375.099c13.202-21,22.8-44.099,28.202-68.399l25.598-6.301
	c6.603-1.5,11.4-7.5,11.4-14.399v-60C512,219.099,507.203,213.1,500.6,211.599z M256,421c-90.901,0-165-74.101-165-165
	c0-90.901,74.099-165,165-165s165,74.099,165,165C421,346.899,346.901,421,256,421z"/>
<path style="fill:#B7E0F6;" d="M372.587,372.587C342.704,402.473,301.45,421,256,421c-90.901,0-165-74.101-165-165
	c0-45.45,18.527-86.702,48.413-116.589L75.7,75.7L54.401,97c-4.801,4.799-5.698,12.299-2.102,18.3L65.2,136.899
	c-13.202,21-22.8,44.101-28.202,68.401L11.4,211.599C4.797,213.1,0,219.099,0,226v60c0,6.899,4.797,12.9,11.4,14.399l25.598,6.301
	c5.402,24.3,15,47.399,28.202,68.399L52.299,396.7c-3.596,6-2.699,13.5,2.102,18.3l42.598,42.599c4.801,4.801,12.301,5.7,18.303,2.1
	l21.599-12.9C157.899,460,181,469.6,205.302,475l5.999,25.6c1.802,6.599,7.8,11.4,14.7,11.4h60c6.899,0,12.898-4.801,14.7-11.4
	L306.7,475c24.302-5.4,47.402-15,68.401-28.2l21.599,12.9c6.002,3.6,13.502,2.701,18.303-2.1l21.297-21.3L372.587,372.587z"/>
<g>
</g>
<g>
</g>
<g>
</g>
<g>
</g>
<g>
</g>
<g>
</g>
<g>
</g>
<g>
</g>
<g>
</g>
<g>
</g>
<g>
</g>
<g>
</g>
<g>
</g>
<g>
</g>
<g>
</g>
</svg>
