<?xml version="1.0" encoding="iso-8859-1"?>
<!-- Generator: Adobe Illustrator 19.0.0, SVG Export Plug-In . SVG Version: 6.00 Build 0)  -->
<svg version="1.1" id="Capa_1" xmlns="http://www.w3.org/2000/svg" xmlns:xlink="http://www.w3.org/1999/xlink" x="0px" y="0px"
	 viewBox="0 0 512.001 512.001" style="enable-background:new 0 0 512.001 512.001;" xml:space="preserve">
<path style="fill:#A5D9F5;" d="M510.189,402.37c-6.601-35.701-36.602-68.1-83.7-72.3c-20.7-0.901-40.802-10.201-56.701-25.8
	c-61.801-61.803-98.103-98.103-161.103-161.105c-16.5-16.5-27.505-36.361-28.105-55.862c-1.5-24.6-10.499-44.701-26.7-60.9
	c-23.099-23.101-56.401-30-77.7-24.6c-10.201,2.701-15,17.1-6.301,25.201l20.4,20.698l0.3,0.3v42.302H48.278l-0.3-0.3l-20.7-20.4
	c-7.5-7.8-20.7-5.099-24.6,4.499c-6.601,13.2-1.5,51.902,21,76.202c17.699,19.799,42.901,30,63.301,30
	c17.699,0.599,36.205,7.561,51.205,19.86c30.3,30,1.501,1.199,168.004,167.704c15.599,15.599,24.899,36,25.8,56.7
	c4.2,46.801,36.302,77.101,72.3,83.702c27.902,6,59.402-2.401,81.302-24.6C506.589,462.672,515.89,432.371,510.189,402.37z
	 M421.988,465.072c-24.901,0-45.001-20.101-45.001-45.001c0-12.601,5.099-23.701,13.2-31.8c8.101-8.101,19.2-13.2,31.8-13.2
	c24.901,0,45.001,20.099,45.001,45.001c0,12.599-5.099,23.699-13.2,31.8C445.688,459.971,434.588,465.072,421.988,465.072z"/>
<path style="fill:#81C8EE;" d="M485.589,483.673c-21.899,22.2-53.4,30.601-81.302,24.6c-36-6.601-68.1-36.902-72.3-83.702
	c-0.901-20.7-10.201-41.101-25.8-56.7C139.684,201.367,168.483,230.168,138.183,200.167c-15-12.299-33.506-19.262-51.205-19.86
	c-20.4,0-45.602-10.201-63.301-30c-22.5-24.3-27.601-63.002-21-76.202c3.9-9.598,17.1-12.299,24.6-4.499l20.7,20.4l0.3,0.3h42.3
	l299.61,297.966c-8.101,8.099-13.2,19.199-13.2,31.8c0,24.899,20.099,45.001,45.001,45.001c12.599,0,23.699-5.101,31.8-13.2
	L485.589,483.673z"/>
<polygon style="fill:#B7E0F6;" points="422.889,131.768 269.586,284.769 248.286,263.769 226.985,242.768 380.287,89.165 "/>
<polygon style="fill:#A4D9F5;" points="422.889,131.768 269.586,284.769 248.286,263.769 401.588,110.467 "/>
<path style="fill:#E50027;" d="M258.785,338.169l-42.3-42.6l-42.602-42.3c-5.7-6-15.3-6-20.999,0
	c-50.403,50.401-89.102,88.8-139.503,139.501c-17.701,17.401-17.701,45.902,0,63.601l21,21.301l21.299,21
	c17.701,17.699,46.202,17.699,63.601,0c50.701-50.401,89.102-89.102,139.503-139.503
	C264.786,353.469,264.786,343.869,258.785,338.169z"/>
<path style="fill:#CAE8F9;" d="M507.488,25.564l-10.499-10.499L486.49,4.564c-4.501-4.499-11.4-5.7-16.8-3.3
	c-42.302,19.2-74.703,33.901-116.702,53.102c-9.6,4.499-11.7,17.1-4.501,24.3l42.302,42.6l42.6,42.302
	c7.2,7.2,19.799,5.099,24.3-4.501c19.2-42.002,33.901-74.4,53.102-116.702C513.19,36.665,511.989,30.065,507.488,25.564z"/>
<path style="fill:#C1001F;" d="M258.785,359.17c-50.401,50.401-88.802,89.102-139.503,139.503c-17.399,17.699-45.9,17.699-63.601,0
	l-21.299-21L216.485,295.57l42.3,42.6C264.786,343.869,264.786,353.469,258.785,359.17z"/>
<path style="fill:#B7E0F6;" d="M510.79,42.365c-19.2,42.302-33.901,74.701-53.102,116.702c-4.501,9.6-17.1,11.7-24.3,4.501
	l-42.6-42.302L496.989,15.065l10.499,10.499C511.989,30.065,513.19,36.665,510.79,42.365z"/>
<path style="fill:#FD003A;" d="M301.386,295.569l-42.3-42.3l-42.601-42.602c-17.1-16.8-46.801-16.8-63.601,0
	c-17.701,17.701-17.701,46.202,0,63.603l84.9,84.9c8.701,8.701,20.101,13.2,31.801,13.2c11.4,0,23.101-4.499,31.8-13.2
	c8.401-8.399,13.2-19.799,13.2-31.8C314.586,315.371,309.786,303.97,301.386,295.569z"/>
<path style="fill:#E50027;" d="M314.586,327.369c0,12.001-4.799,23.401-13.2,31.8c-8.699,8.701-20.4,13.2-31.8,13.2
	c-11.699,0-23.099-4.499-31.801-13.2l-42.3-42.3l63.601-63.601l42.3,42.3C309.786,303.97,314.586,315.371,314.586,327.369z"/>
<g>
</g>
<g>
</g>
<g>
</g>
<g>
</g>
<g>
</g>
<g>
</g>
<g>
</g>
<g>
</g>
<g>
</g>
<g>
</g>
<g>
</g>
<g>
</g>
<g>
</g>
<g>
</g>
<g>
</g>
</svg>
